<svg width="18" height="21" viewBox="0 0 18 21" fill="none" xmlns="http://www.w3.org/2000/svg">
<path d="M2.45763 19.1422C2.51857 19.8126 3.06711 20.3002 3.73754 20.3002H14.2612C14.9317 20.3002 15.4802 19.7923 15.5411 19.1422L16.7195 6.79004H1.2793L2.45763 19.1422Z" fill="white"/>
<path d="M16.7201 2.93002H11.5801V2.27991C11.5801 1.56885 11.0113 1 10.3002 1H7.72009C7.00903 1 6.44018 1.56885 6.44018 2.27991V2.93002H1.27991C0.568849 2.93002 0 3.49887 0 4.20993C0 4.92099 0.568849 5.48984 1.27991 5.48984H16.7201C17.4312 5.48984 18 4.92099 18 4.20993C18 3.49887 17.4312 2.93002 16.7201 2.93002Z" fill="white"/>
</svg>
